<svg width="36" height="36" viewBox="0 0 36 36" fill="none" xmlns="http://www.w3.org/2000/svg">
<path d="M18 3.375C11.8125 3.375 6.75 8.4375 6.75 14.625C6.75 24.075 16.875 32.0625 17.325 32.4C17.55 32.5125 17.775 32.625 18 32.625C18.225 32.625 18.45 32.5125 18.675 32.4C19.125 32.0625 29.25 24.075 29.25 14.625C29.25 8.4375 24.1875 3.375 18 3.375ZM18 19.125C15.525 19.125 13.5 17.1 13.5 14.625C13.5 12.15 15.525 10.125 18 10.125C20.475 10.125 22.5 12.15 22.5 14.625C22.5 17.1 20.475 19.125 18 19.125Z" fill="#18C873"/>
</svg>
